# xmcd
#
# Track frame offsets:
#	150
#	10800
#	22852
#	34200
#	46987
#	58612
#	74317
#	87670
#	101155
#	114630
#	128100
#	141390
#	154490
#	165740
#	179725
#	193795
#	206370
#	219890
#	231987
#	244470
#	257937
#	270905
#	283205
#	295580
#	309987
#	321550
#	333567
#
# Disc length: 4623 seconds
#
# Revision: 0
# Processed by: cddbd v1.4PL0 Copyright (c) Steve Scherf et al.
# Submitted via: audiograbber 1.80
#
DISCID=a5120d1b
DTITLE=jimmie davis - you are my sunshine disc 5
DYEAR=1900
DGENRE=
TTITLE0=i'm gonna write myself a letter 1947
TTITLE1=tired of crying over you 1998
TTITLE2=there's a new love in my heart tonight 1998
TTITLE3=atlanta, georgia 1998
TTITLE4=wave to me my lady 1998
TTITLE5=a woman's blues 1988
TTITLE6=down at the old country chuch 1931
TTITLE7=when a boy from the mountains (weds a girl from the valley) 1936
TTITLE8=don't say goodbye if you love me 1998
TTITLE9=my blue bonnet girl 1998
TTITLE10=ridin' down the arizona trail 1998
TTITLE11=mama's getting not and papa's getting cold 1998
TTITLE12=all alone in this world 1998
TTITLE13=nobody's lonesome for me 1938
TTITLE14=nobody's lonesome for me 1938
TTITLE15=the same old moon is shining 1998
TTITLE16=born to be blue 1998
TTITLE17=my blue heaven 1998
TTITLE18=old timer 1998
TTITLE19=there's a chill on the hill tonight 1998
TTITLE20=why should i be to blame 1998
TTITLE21=i'm knocking at your door again 1998
TTITLE22=what more can i say 1942
TTITLE23=i hung my head and cried 1998
TTITLE24=i'll be true to the one i love 1998
TTITLE25=just because (of you little girl) 1998
TTITLE26=live and let live 1998
EXTD=
EXTT0=
EXTT1=
EXTT2=
EXTT3=
EXTT4=
EXTT5=
EXTT6=
EXTT7=
EXTT8=
EXTT9=
EXTT10=
EXTT11=
EXTT12=
EXTT13=
EXTT14=
EXTT15=
EXTT16=
EXTT17=
EXTT18=
EXTT19=
EXTT20=
EXTT21=
EXTT22=
EXTT23=
EXTT24=
EXTT25=
EXTT26=
PLAYORDER=
